<svg width="40" height="40" viewBox="0 0 40 40" fill="none" xmlns="http://www.w3.org/2000/svg">
<path d="M30.6514 4.84283C28.0701 2.3648 24.4978 1 20.5927 1C14.6276 1 10.9587 3.44521 8.93131 5.49637C6.4327 8.0242 5 11.3807 5 14.7053C5 18.8797 6.74604 22.0836 9.66997 23.2755C9.86626 23.356 10.0638 23.3965 10.2574 23.3965C10.8743 23.3965 11.363 22.9928 11.5324 22.3454C11.6311 21.974 11.8598 21.0577 11.9592 20.6599C12.1721 19.8744 12.0001 19.4965 11.5359 18.9495C10.6902 17.9488 10.2964 16.7656 10.2964 15.2256C10.2964 10.6516 13.7024 5.79029 20.0149 5.79029C25.0237 5.79029 28.1351 8.63709 28.1351 13.2196C28.1351 16.1114 27.5122 18.7894 26.3808 20.7607C25.5946 22.1305 24.2122 23.7633 22.0899 23.7633C21.1722 23.7633 20.3478 23.3863 19.8276 22.7291C19.3362 22.1078 19.1742 21.3052 19.3719 20.4687C19.5951 19.5235 19.8996 18.5377 20.1942 17.5846C20.7316 15.844 21.2396 14.1999 21.2396 12.8882C21.2396 10.6446 19.8603 9.13705 17.8077 9.13705C15.1991 9.13705 13.1554 11.7865 13.1554 15.1689C13.1554 16.8277 13.5962 18.0684 13.7958 18.5448C13.4672 19.9371 11.5141 28.215 11.1436 29.776C10.9294 30.6872 9.63898 37.8843 11.7748 38.4582C14.1745 39.1029 16.3196 32.0934 16.5379 31.3014C16.7149 30.6572 17.334 28.2214 17.7134 26.7241C18.8719 27.8399 20.7372 28.5943 22.5521 28.5943C25.9737 28.5943 29.0508 27.0546 31.2166 24.2592C33.3172 21.5477 34.474 17.7686 34.474 13.6183C34.4739 10.3738 33.0805 7.17517 30.6514 4.84283Z" fill="white"/>
</svg>
