<svg width="40" height="40" viewBox="0 0 40 40" fill="none" xmlns="http://www.w3.org/2000/svg">
<path d="M19.6778 14.3999C16.8249 14.3999 14.4 16.8248 14.4 19.6777C14.4 22.5305 16.8249 24.9555 19.6778 24.9555C22.5307 24.9555 24.9556 22.5305 24.9556 19.6777C24.9556 16.8248 22.5307 14.3999 19.6778 14.3999Z" fill="white"/>
<path d="M26.5985 4H13.2121C8.0303 4 4 8.0303 4 13.0682V26.4545C4 31.6364 8.0303 35.6667 13.2121 35.6667H26.5985C31.6364 35.6667 35.6667 31.6364 35.6667 26.4545V13.0682C35.6667 8.0303 31.6364 4 26.5985 4ZM19.8333 28.1818C15.2273 28.1818 11.6288 24.4394 11.6288 19.9773C11.6288 15.5151 15.2273 11.6288 19.8333 11.6288C24.4394 11.6288 28.0379 15.3712 28.0379 19.8333C28.0379 24.2954 24.4394 28.1818 19.8333 28.1818ZM28.3258 13.3561C27.3182 13.3561 26.4545 12.4924 26.4545 11.4848C26.4545 10.4773 27.3182 9.61364 28.3258 9.61364C29.3333 9.61364 30.197 10.4773 30.197 11.4848C30.197 12.4924 29.3333 13.3561 28.3258 13.3561Z" fill="white"/>
</svg>
