<svg width="40" height="40" viewBox="0 0 40 40" fill="none" xmlns="http://www.w3.org/2000/svg">
<path d="M19.9365 7.2002C19.9365 7.2002 31.3984 7.19944 34.2637 7.97559C35.8416 8.39605 37.0834 9.64448 37.5039 11.2354C38.2671 14.1136 38.2607 20.1162 38.2607 20.1162C38.2607 20.1309 38.2594 26.1224 37.4971 28.9971C37.0765 30.5815 35.8349 31.83 34.2568 32.2568C31.4064 33.0242 19.9986 33.0264 19.9307 33.0264C19.9307 33.0264 8.46234 33.0265 5.60352 32.2568C4.02559 31.8364 2.78376 30.5879 2.36328 28.9971C1.601 26.1224 1.60059 20.1309 1.60059 20.1162C1.60059 20.1162 1.60048 14.1143 2.37012 11.2295C2.79052 9.64488 4.03222 8.39663 5.61035 7.96973C8.46066 7.20234 19.8686 7.2002 19.9365 7.2002ZM16.1855 25.5684L25.7705 20.1162L16.1855 14.6641V25.5684Z" fill="white"/>
</svg>
